<mxfile host="app.diagrams.net" modified="2024-07-09T06:09:59.230Z" agent="Mozilla/5.0 (Windows NT 10.0; Win64; x64) AppleWebKit/537.36 (KHTML, like Gecko) Chrome/126.0.0.0 Safari/537.36" etag="9vNuO6d1wJcd9K5owiIO" version="24.6.4" type="device">
  <diagram name="‫עמוד-1‬" id="Irhl2ybRTZ6hDGPzilzi">
    <mxGraphModel dx="794" dy="412" grid="1" gridSize="10" guides="1" tooltips="1" connect="1" arrows="1" fold="1" page="1" pageScale="1" pageWidth="827" pageHeight="1169" math="0" shadow="0">
      <root>
        <mxCell id="0" />
        <mxCell id="1" parent="0" />
        <mxCell id="AJ9RHfCNpIEL10GADZWj-3" value="Service" style="shape=umlFrame;whiteSpace=wrap;html=1;pointerEvents=0;width=60;height=20;" parent="1" vertex="1">
          <mxGeometry x="10" y="210" width="780" height="310" as="geometry" />
        </mxCell>
        <mxCell id="Qu_59R8UBrYrSEYc-8jM-3" style="edgeStyle=orthogonalEdgeStyle;rounded=0;orthogonalLoop=1;jettySize=auto;html=1;entryX=0.5;entryY=0;entryDx=0;entryDy=0;" parent="1" source="AJ9RHfCNpIEL10GADZWj-4" target="Qu_59R8UBrYrSEYc-8jM-1" edge="1">
          <mxGeometry relative="1" as="geometry">
            <Array as="points">
              <mxPoint x="189" y="500" />
              <mxPoint x="425" y="500" />
            </Array>
          </mxGeometry>
        </mxCell>
        <mxCell id="AJ9RHfCNpIEL10GADZWj-4" value="ClientService" style="html=1;whiteSpace=wrap;" parent="1" vertex="1">
          <mxGeometry x="124" y="280" width="130" height="70" as="geometry" />
        </mxCell>
        <mxCell id="Ji8Wb4CYxmGb_L5L8j7Q-16" style="edgeStyle=none;curved=1;rounded=0;orthogonalLoop=1;jettySize=auto;html=1;fontSize=12;startSize=8;endSize=8;" parent="1" edge="1">
          <mxGeometry relative="1" as="geometry">
            <mxPoint x="358" y="640" as="targetPoint" />
          </mxGeometry>
        </mxCell>
        <mxCell id="Qu_59R8UBrYrSEYc-8jM-2" style="edgeStyle=orthogonalEdgeStyle;rounded=0;orthogonalLoop=1;jettySize=auto;html=1;" parent="1" source="AJ9RHfCNpIEL10GADZWj-6" target="Qu_59R8UBrYrSEYc-8jM-1" edge="1">
          <mxGeometry relative="1" as="geometry" />
        </mxCell>
        <mxCell id="AJ9RHfCNpIEL10GADZWj-6" value="MarketService" style="html=1;whiteSpace=wrap;" parent="1" vertex="1">
          <mxGeometry x="395" y="280" width="130" height="70" as="geometry" />
        </mxCell>
        <mxCell id="Ji8Wb4CYxmGb_L5L8j7Q-6" value="Domain" style="shape=umlFrame;whiteSpace=wrap;html=1;pointerEvents=0;width=60;height=20;" parent="1" vertex="1">
          <mxGeometry x="10" y="570" width="620" height="310" as="geometry" />
        </mxCell>
        <mxCell id="Ji8Wb4CYxmGb_L5L8j7Q-10" value="Payments" style="html=1;whiteSpace=wrap;" parent="1" vertex="1">
          <mxGeometry x="480" y="750" width="130" height="70" as="geometry" />
        </mxCell>
        <mxCell id="Ji8Wb4CYxmGb_L5L8j7Q-12" value="Alerts" style="html=1;whiteSpace=wrap;" parent="1" vertex="1">
          <mxGeometry x="660" y="640" width="130" height="70" as="geometry" />
        </mxCell>
        <mxCell id="Qu_59R8UBrYrSEYc-8jM-4" style="edgeStyle=orthogonalEdgeStyle;rounded=0;orthogonalLoop=1;jettySize=auto;html=1;" parent="1" source="Qu_59R8UBrYrSEYc-8jM-1" target="Ji8Wb4CYxmGb_L5L8j7Q-12" edge="1">
          <mxGeometry relative="1" as="geometry" />
        </mxCell>
        <mxCell id="Qu_59R8UBrYrSEYc-8jM-6" style="edgeStyle=orthogonalEdgeStyle;rounded=0;orthogonalLoop=1;jettySize=auto;html=1;" parent="1" source="Qu_59R8UBrYrSEYc-8jM-1" target="Ji8Wb4CYxmGb_L5L8j7Q-10" edge="1">
          <mxGeometry relative="1" as="geometry">
            <Array as="points">
              <mxPoint x="425" y="770" />
            </Array>
          </mxGeometry>
        </mxCell>
        <mxCell id="Qu_59R8UBrYrSEYc-8jM-8" style="edgeStyle=orthogonalEdgeStyle;rounded=0;orthogonalLoop=1;jettySize=auto;html=1;" parent="1" source="Qu_59R8UBrYrSEYc-8jM-1" target="Qu_59R8UBrYrSEYc-8jM-7" edge="1">
          <mxGeometry relative="1" as="geometry" />
        </mxCell>
        <mxCell id="Qu_59R8UBrYrSEYc-8jM-10" style="edgeStyle=orthogonalEdgeStyle;rounded=0;orthogonalLoop=1;jettySize=auto;html=1;exitX=0.25;exitY=1;exitDx=0;exitDy=0;entryX=1;entryY=0.5;entryDx=0;entryDy=0;" parent="1" source="Qu_59R8UBrYrSEYc-8jM-1" target="Qu_59R8UBrYrSEYc-8jM-9" edge="1">
          <mxGeometry relative="1" as="geometry" />
        </mxCell>
        <mxCell id="Qu_59R8UBrYrSEYc-8jM-1" value="MarketMangerFacade" style="html=1;whiteSpace=wrap;" parent="1" vertex="1">
          <mxGeometry x="360" y="640" width="130" height="70" as="geometry" />
        </mxCell>
        <mxCell id="Qu_59R8UBrYrSEYc-8jM-7" value="Shipping" style="html=1;whiteSpace=wrap;" parent="1" vertex="1">
          <mxGeometry x="140" y="640" width="130" height="70" as="geometry" />
        </mxCell>
        <mxCell id="Qu_59R8UBrYrSEYc-8jM-9" value="Security" style="html=1;whiteSpace=wrap;" parent="1" vertex="1">
          <mxGeometry x="140" y="740" width="130" height="70" as="geometry" />
        </mxCell>
        <mxCell id="oeC2ZcLDWp6q_VLjjZ3v-1" value="Alerts" style="shape=umlFrame;whiteSpace=wrap;html=1;pointerEvents=0;width=60;height=20;" parent="1" vertex="1">
          <mxGeometry x="640" y="570" width="160" height="310" as="geometry" />
        </mxCell>
        <mxCell id="ZEXl1bUEDfaRSJZmUoqv-3" value="DAL" style="shape=umlFrame;whiteSpace=wrap;html=1;pointerEvents=0;width=60;height=20;" parent="1" vertex="1">
          <mxGeometry x="10" y="890" width="620" height="120" as="geometry" />
        </mxCell>
        <mxCell id="ZEXl1bUEDfaRSJZmUoqv-4" value="DBcontext" style="html=1;whiteSpace=wrap;" parent="1" vertex="1">
          <mxGeometry x="349" y="910" width="130" height="70" as="geometry" />
        </mxCell>
        <mxCell id="6XT7NJe6W6ua3viRcV1a-1" style="edgeStyle=orthogonalEdgeStyle;rounded=0;orthogonalLoop=1;jettySize=auto;html=1;entryX=0.587;entryY=-0.019;entryDx=0;entryDy=0;entryPerimeter=0;" edge="1" parent="1" source="Qu_59R8UBrYrSEYc-8jM-1" target="ZEXl1bUEDfaRSJZmUoqv-4">
          <mxGeometry relative="1" as="geometry" />
        </mxCell>
        <mxCell id="6XT7NJe6W6ua3viRcV1a-2" value="MarketDB" style="shape=cylinder3;whiteSpace=wrap;html=1;boundedLbl=1;backgroundOutline=1;size=15;" vertex="1" parent="1">
          <mxGeometry x="384" y="1060" width="60" height="80" as="geometry" />
        </mxCell>
        <mxCell id="6XT7NJe6W6ua3viRcV1a-3" style="edgeStyle=orthogonalEdgeStyle;rounded=0;orthogonalLoop=1;jettySize=auto;html=1;entryX=0.5;entryY=0;entryDx=0;entryDy=0;entryPerimeter=0;" edge="1" parent="1" source="ZEXl1bUEDfaRSJZmUoqv-4" target="6XT7NJe6W6ua3viRcV1a-2">
          <mxGeometry relative="1" as="geometry" />
        </mxCell>
      </root>
    </mxGraphModel>
  </diagram>
</mxfile>
